<mxfile host="app.diagrams.net" agent="Mozilla/5.0 (Windows NT 10.0; Win64; x64) AppleWebKit/537.36 (KHTML, like Gecko) Chrome/139.0.0.0 Safari/537.36" version="28.1.0">
  <diagram name="Page-1" id="N7Pm-M6lshDgP5avCQsC">
    <mxGraphModel dx="1281" dy="568" grid="1" gridSize="10" guides="1" tooltips="1" connect="1" arrows="1" fold="1" page="1" pageScale="1" pageWidth="850" pageHeight="1100" math="0" shadow="0">
      <root>
        <mxCell id="0" />
        <mxCell id="1" parent="0" />
        <mxCell id="ULviqefrmIrI3ihV1RMq-7" style="edgeStyle=orthogonalEdgeStyle;rounded=0;orthogonalLoop=1;jettySize=auto;html=1;exitX=0.5;exitY=1;exitDx=0;exitDy=0;entryX=0.5;entryY=0;entryDx=0;entryDy=0;" parent="1" source="ULviqefrmIrI3ihV1RMq-1" target="ULviqefrmIrI3ihV1RMq-3" edge="1">
          <mxGeometry relative="1" as="geometry" />
        </mxCell>
        <mxCell id="ULviqefrmIrI3ihV1RMq-1" value="Start" style="ellipse;whiteSpace=wrap;html=1;" parent="1" vertex="1">
          <mxGeometry x="200" y="80" width="120" height="50" as="geometry" />
        </mxCell>
        <mxCell id="ULviqefrmIrI3ihV1RMq-2" value="Stop" style="ellipse;whiteSpace=wrap;html=1;" parent="1" vertex="1">
          <mxGeometry x="200" y="580" width="120" height="50" as="geometry" />
        </mxCell>
        <mxCell id="ULviqefrmIrI3ihV1RMq-6" style="edgeStyle=orthogonalEdgeStyle;rounded=0;orthogonalLoop=1;jettySize=auto;html=1;exitX=0.5;exitY=1;exitDx=0;exitDy=0;entryX=0.5;entryY=0;entryDx=0;entryDy=0;" parent="1" source="ULviqefrmIrI3ihV1RMq-3" target="ULviqefrmIrI3ihV1RMq-5" edge="1">
          <mxGeometry relative="1" as="geometry" />
        </mxCell>
        <mxCell id="ULviqefrmIrI3ihV1RMq-3" value="Input Number" style="shape=parallelogram;perimeter=parallelogramPerimeter;whiteSpace=wrap;html=1;fixedSize=1;" parent="1" vertex="1">
          <mxGeometry x="180" y="170" width="160" height="50" as="geometry" />
        </mxCell>
        <mxCell id="ULviqefrmIrI3ihV1RMq-10" style="edgeStyle=orthogonalEdgeStyle;rounded=0;orthogonalLoop=1;jettySize=auto;html=1;exitX=0;exitY=0.5;exitDx=0;exitDy=0;entryX=0.5;entryY=0;entryDx=0;entryDy=0;" parent="1" source="ULviqefrmIrI3ihV1RMq-5" target="ULviqefrmIrI3ihV1RMq-8" edge="1">
          <mxGeometry relative="1" as="geometry" />
        </mxCell>
        <mxCell id="ULviqefrmIrI3ihV1RMq-12" value="&amp;nbsp;True&amp;nbsp;" style="edgeLabel;html=1;align=center;verticalAlign=middle;resizable=0;points=[];" parent="ULviqefrmIrI3ihV1RMq-10" vertex="1" connectable="0">
          <mxGeometry x="-0.4038" y="-3" relative="1" as="geometry">
            <mxPoint as="offset" />
          </mxGeometry>
        </mxCell>
        <mxCell id="ULviqefrmIrI3ihV1RMq-11" style="edgeStyle=orthogonalEdgeStyle;rounded=0;orthogonalLoop=1;jettySize=auto;html=1;exitX=1;exitY=0.5;exitDx=0;exitDy=0;entryX=0.5;entryY=0;entryDx=0;entryDy=0;" parent="1" source="ULviqefrmIrI3ihV1RMq-5" target="ULviqefrmIrI3ihV1RMq-9" edge="1">
          <mxGeometry relative="1" as="geometry" />
        </mxCell>
        <mxCell id="ULviqefrmIrI3ihV1RMq-13" value="&amp;nbsp;False&amp;nbsp;" style="edgeLabel;html=1;align=center;verticalAlign=middle;resizable=0;points=[];" parent="ULviqefrmIrI3ihV1RMq-11" vertex="1" connectable="0">
          <mxGeometry x="-0.4755" relative="1" as="geometry">
            <mxPoint as="offset" />
          </mxGeometry>
        </mxCell>
        <mxCell id="ULviqefrmIrI3ihV1RMq-5" value="number &amp;gt;= 0" style="rhombus;whiteSpace=wrap;html=1;" parent="1" vertex="1">
          <mxGeometry x="200" y="270" width="120" height="80" as="geometry" />
        </mxCell>
        <mxCell id="ULviqefrmIrI3ihV1RMq-15" style="edgeStyle=orthogonalEdgeStyle;rounded=0;orthogonalLoop=1;jettySize=auto;html=1;exitX=0.75;exitY=1;exitDx=0;exitDy=0;entryX=0.25;entryY=0;entryDx=0;entryDy=0;" parent="1" source="ULviqefrmIrI3ihV1RMq-8" target="ULviqefrmIrI3ihV1RMq-14" edge="1">
          <mxGeometry relative="1" as="geometry" />
        </mxCell>
        <mxCell id="ULviqefrmIrI3ihV1RMq-8" value="return math.sqrt(number)" style="rounded=0;whiteSpace=wrap;html=1;" parent="1" vertex="1">
          <mxGeometry x="20" y="390" width="180" height="60" as="geometry" />
        </mxCell>
        <mxCell id="ULviqefrmIrI3ihV1RMq-16" style="edgeStyle=orthogonalEdgeStyle;rounded=0;orthogonalLoop=1;jettySize=auto;html=1;exitX=0.25;exitY=1;exitDx=0;exitDy=0;entryX=0.75;entryY=0;entryDx=0;entryDy=0;" parent="1" source="ULviqefrmIrI3ihV1RMq-9" target="ULviqefrmIrI3ihV1RMq-14" edge="1">
          <mxGeometry relative="1" as="geometry" />
        </mxCell>
        <mxCell id="ULviqefrmIrI3ihV1RMq-9" value="return &quot;Number cannot be negative&quot;" style="rounded=0;whiteSpace=wrap;html=1;" parent="1" vertex="1">
          <mxGeometry x="320" y="390" width="180" height="60" as="geometry" />
        </mxCell>
        <mxCell id="ULviqefrmIrI3ihV1RMq-17" style="edgeStyle=orthogonalEdgeStyle;rounded=0;orthogonalLoop=1;jettySize=auto;html=1;exitX=0.5;exitY=1;exitDx=0;exitDy=0;entryX=0.5;entryY=0;entryDx=0;entryDy=0;" parent="1" source="ULviqefrmIrI3ihV1RMq-14" target="ULviqefrmIrI3ihV1RMq-2" edge="1">
          <mxGeometry relative="1" as="geometry" />
        </mxCell>
        <mxCell id="ULviqefrmIrI3ihV1RMq-14" value="Output return value" style="shape=parallelogram;perimeter=parallelogramPerimeter;whiteSpace=wrap;html=1;fixedSize=1;size=20;" parent="1" vertex="1">
          <mxGeometry x="170" y="500" width="180" height="40" as="geometry" />
        </mxCell>
        <mxCell id="ULviqefrmIrI3ihV1RMq-18" value="Square Root" style="rounded=1;whiteSpace=wrap;html=1;" parent="1" vertex="1">
          <mxGeometry x="20" y="80" width="100" height="40" as="geometry" />
        </mxCell>
        <mxCell id="ULviqefrmIrI3ihV1RMq-36" style="edgeStyle=orthogonalEdgeStyle;rounded=0;orthogonalLoop=1;jettySize=auto;html=1;exitX=0.5;exitY=1;exitDx=0;exitDy=0;entryX=0.5;entryY=0;entryDx=0;entryDy=0;" parent="1" source="ULviqefrmIrI3ihV1RMq-19" target="ULviqefrmIrI3ihV1RMq-35" edge="1">
          <mxGeometry relative="1" as="geometry" />
        </mxCell>
        <mxCell id="ULviqefrmIrI3ihV1RMq-19" value="Start" style="ellipse;whiteSpace=wrap;html=1;" parent="1" vertex="1">
          <mxGeometry x="1091.87" y="80" width="120" height="50" as="geometry" />
        </mxCell>
        <mxCell id="ULviqefrmIrI3ihV1RMq-20" value="Basic Maths" style="rounded=1;whiteSpace=wrap;html=1;" parent="1" vertex="1">
          <mxGeometry x="881.87" y="85" width="100" height="40" as="geometry" />
        </mxCell>
        <mxCell id="ULviqefrmIrI3ihV1RMq-26" style="edgeStyle=orthogonalEdgeStyle;rounded=0;orthogonalLoop=1;jettySize=auto;html=1;entryX=0.5;entryY=0;entryDx=0;entryDy=0;" parent="1" source="ULviqefrmIrI3ihV1RMq-21" target="ULviqefrmIrI3ihV1RMq-22" edge="1">
          <mxGeometry relative="1" as="geometry" />
        </mxCell>
        <mxCell id="ULviqefrmIrI3ihV1RMq-21" value="Input number, symbol, number2" style="shape=parallelogram;perimeter=parallelogramPerimeter;whiteSpace=wrap;html=1;fixedSize=1;" parent="1" vertex="1">
          <mxGeometry x="1039.37" y="220" width="225" height="35" as="geometry" />
        </mxCell>
        <mxCell id="ULviqefrmIrI3ihV1RMq-27" style="edgeStyle=orthogonalEdgeStyle;rounded=0;orthogonalLoop=1;jettySize=auto;html=1;entryX=0;entryY=0.5;entryDx=0;entryDy=0;" parent="1" source="ULviqefrmIrI3ihV1RMq-22" target="ULviqefrmIrI3ihV1RMq-23" edge="1">
          <mxGeometry relative="1" as="geometry" />
        </mxCell>
        <mxCell id="ULviqefrmIrI3ihV1RMq-41" value="&amp;nbsp;False&amp;nbsp;" style="edgeLabel;html=1;align=center;verticalAlign=middle;resizable=0;points=[];" parent="ULviqefrmIrI3ihV1RMq-27" vertex="1" connectable="0">
          <mxGeometry x="-0.0654" y="-1" relative="1" as="geometry">
            <mxPoint as="offset" />
          </mxGeometry>
        </mxCell>
        <mxCell id="ULviqefrmIrI3ihV1RMq-40" style="edgeStyle=orthogonalEdgeStyle;rounded=0;orthogonalLoop=1;jettySize=auto;html=1;exitX=0.5;exitY=1;exitDx=0;exitDy=0;entryX=0.5;entryY=0;entryDx=0;entryDy=0;" parent="1" source="ULviqefrmIrI3ihV1RMq-22" target="ULviqefrmIrI3ihV1RMq-33" edge="1">
          <mxGeometry relative="1" as="geometry" />
        </mxCell>
        <mxCell id="ULviqefrmIrI3ihV1RMq-44" value="True" style="edgeLabel;html=1;align=center;verticalAlign=middle;resizable=0;points=[];" parent="ULviqefrmIrI3ihV1RMq-40" vertex="1" connectable="0">
          <mxGeometry x="-0.1404" y="-1" relative="1" as="geometry">
            <mxPoint as="offset" />
          </mxGeometry>
        </mxCell>
        <mxCell id="ULviqefrmIrI3ihV1RMq-22" value="if symbol = &quot;+&quot;" style="rhombus;whiteSpace=wrap;html=1;" parent="1" vertex="1">
          <mxGeometry x="789.99" y="290" width="150" height="80" as="geometry" />
        </mxCell>
        <mxCell id="ULviqefrmIrI3ihV1RMq-28" style="edgeStyle=orthogonalEdgeStyle;rounded=0;orthogonalLoop=1;jettySize=auto;html=1;entryX=0;entryY=0.5;entryDx=0;entryDy=0;" parent="1" source="ULviqefrmIrI3ihV1RMq-23" target="ULviqefrmIrI3ihV1RMq-24" edge="1">
          <mxGeometry relative="1" as="geometry" />
        </mxCell>
        <mxCell id="ULviqefrmIrI3ihV1RMq-42" value="&amp;nbsp;False&amp;nbsp;" style="edgeLabel;html=1;align=center;verticalAlign=middle;resizable=0;points=[];" parent="ULviqefrmIrI3ihV1RMq-28" vertex="1" connectable="0">
          <mxGeometry x="-0.1772" y="2" relative="1" as="geometry">
            <mxPoint as="offset" />
          </mxGeometry>
        </mxCell>
        <mxCell id="ULviqefrmIrI3ihV1RMq-45" style="edgeStyle=orthogonalEdgeStyle;rounded=0;orthogonalLoop=1;jettySize=auto;html=1;exitX=0.5;exitY=1;exitDx=0;exitDy=0;entryX=0.5;entryY=0;entryDx=0;entryDy=0;" parent="1" source="ULviqefrmIrI3ihV1RMq-23" target="ULviqefrmIrI3ihV1RMq-34" edge="1">
          <mxGeometry relative="1" as="geometry" />
        </mxCell>
        <mxCell id="ULviqefrmIrI3ihV1RMq-48" value="True" style="edgeLabel;html=1;align=center;verticalAlign=middle;resizable=0;points=[];" parent="ULviqefrmIrI3ihV1RMq-45" vertex="1" connectable="0">
          <mxGeometry x="-0.2149" relative="1" as="geometry">
            <mxPoint as="offset" />
          </mxGeometry>
        </mxCell>
        <mxCell id="ULviqefrmIrI3ihV1RMq-23" value="if symbol = &quot;-&quot;" style="rhombus;whiteSpace=wrap;html=1;" parent="1" vertex="1">
          <mxGeometry x="983.74" y="290" width="150" height="80" as="geometry" />
        </mxCell>
        <mxCell id="ULviqefrmIrI3ihV1RMq-29" style="edgeStyle=orthogonalEdgeStyle;rounded=0;orthogonalLoop=1;jettySize=auto;html=1;entryX=0;entryY=0.5;entryDx=0;entryDy=0;" parent="1" source="ULviqefrmIrI3ihV1RMq-24" target="ULviqefrmIrI3ihV1RMq-25" edge="1">
          <mxGeometry relative="1" as="geometry" />
        </mxCell>
        <mxCell id="ULviqefrmIrI3ihV1RMq-43" value="&amp;nbsp;False&amp;nbsp;" style="edgeLabel;html=1;align=center;verticalAlign=middle;resizable=0;points=[];" parent="ULviqefrmIrI3ihV1RMq-29" vertex="1" connectable="0">
          <mxGeometry x="-0.4477" relative="1" as="geometry">
            <mxPoint as="offset" />
          </mxGeometry>
        </mxCell>
        <mxCell id="ULviqefrmIrI3ihV1RMq-46" style="edgeStyle=orthogonalEdgeStyle;rounded=0;orthogonalLoop=1;jettySize=auto;html=1;exitX=0.5;exitY=1;exitDx=0;exitDy=0;entryX=0.5;entryY=0;entryDx=0;entryDy=0;" parent="1" source="ULviqefrmIrI3ihV1RMq-24" target="ULviqefrmIrI3ihV1RMq-38" edge="1">
          <mxGeometry relative="1" as="geometry" />
        </mxCell>
        <mxCell id="ULviqefrmIrI3ihV1RMq-49" value="True" style="edgeLabel;html=1;align=center;verticalAlign=middle;resizable=0;points=[];" parent="ULviqefrmIrI3ihV1RMq-46" vertex="1" connectable="0">
          <mxGeometry x="-0.2398" relative="1" as="geometry">
            <mxPoint as="offset" />
          </mxGeometry>
        </mxCell>
        <mxCell id="ULviqefrmIrI3ihV1RMq-24" value="if symbol = &quot;*&quot;" style="rhombus;whiteSpace=wrap;html=1;" parent="1" vertex="1">
          <mxGeometry x="1177.49" y="290" width="150" height="80" as="geometry" />
        </mxCell>
        <mxCell id="ULviqefrmIrI3ihV1RMq-47" style="edgeStyle=orthogonalEdgeStyle;rounded=0;orthogonalLoop=1;jettySize=auto;html=1;exitX=0.5;exitY=1;exitDx=0;exitDy=0;entryX=0.5;entryY=0;entryDx=0;entryDy=0;" parent="1" source="ULviqefrmIrI3ihV1RMq-25" target="ULviqefrmIrI3ihV1RMq-39" edge="1">
          <mxGeometry relative="1" as="geometry" />
        </mxCell>
        <mxCell id="ULviqefrmIrI3ihV1RMq-50" value="True" style="edgeLabel;html=1;align=center;verticalAlign=middle;resizable=0;points=[];" parent="ULviqefrmIrI3ihV1RMq-47" vertex="1" connectable="0">
          <mxGeometry x="-0.3888" y="-2" relative="1" as="geometry">
            <mxPoint as="offset" />
          </mxGeometry>
        </mxCell>
        <mxCell id="ULviqefrmIrI3ihV1RMq-60" style="edgeStyle=orthogonalEdgeStyle;rounded=0;orthogonalLoop=1;jettySize=auto;html=1;exitX=1;exitY=0.5;exitDx=0;exitDy=0;entryX=1;entryY=0.5;entryDx=0;entryDy=0;" parent="1" source="ULviqefrmIrI3ihV1RMq-25" target="ULviqefrmIrI3ihV1RMq-51" edge="1">
          <mxGeometry relative="1" as="geometry" />
        </mxCell>
        <mxCell id="ULviqefrmIrI3ihV1RMq-61" value="&amp;nbsp;False&amp;nbsp;" style="edgeLabel;html=1;align=center;verticalAlign=middle;resizable=0;points=[];" parent="ULviqefrmIrI3ihV1RMq-60" vertex="1" connectable="0">
          <mxGeometry x="0.6072" y="1" relative="1" as="geometry">
            <mxPoint as="offset" />
          </mxGeometry>
        </mxCell>
        <mxCell id="ULviqefrmIrI3ihV1RMq-25" value="if symbol = &quot;/&quot;" style="rhombus;whiteSpace=wrap;html=1;" parent="1" vertex="1">
          <mxGeometry x="1363.74" y="290" width="150" height="80" as="geometry" />
        </mxCell>
        <mxCell id="ULviqefrmIrI3ihV1RMq-55" style="edgeStyle=orthogonalEdgeStyle;rounded=0;orthogonalLoop=1;jettySize=auto;html=1;exitX=0.5;exitY=1;exitDx=0;exitDy=0;entryX=0.5;entryY=0;entryDx=0;entryDy=0;" parent="1" source="ULviqefrmIrI3ihV1RMq-33" target="ULviqefrmIrI3ihV1RMq-52" edge="1">
          <mxGeometry relative="1" as="geometry" />
        </mxCell>
        <mxCell id="ULviqefrmIrI3ihV1RMq-33" value="sum =&amp;nbsp;&lt;div&gt;number1 + number 2&lt;/div&gt;" style="rounded=0;whiteSpace=wrap;html=1;" parent="1" vertex="1">
          <mxGeometry x="796.24" y="440" width="137.51" height="60" as="geometry" />
        </mxCell>
        <mxCell id="ULviqefrmIrI3ihV1RMq-59" style="edgeStyle=orthogonalEdgeStyle;rounded=0;orthogonalLoop=1;jettySize=auto;html=1;exitX=0.5;exitY=1;exitDx=0;exitDy=0;entryX=0.5;entryY=0;entryDx=0;entryDy=0;" parent="1" source="ULviqefrmIrI3ihV1RMq-34" target="ULviqefrmIrI3ihV1RMq-52" edge="1">
          <mxGeometry relative="1" as="geometry" />
        </mxCell>
        <mxCell id="ULviqefrmIrI3ihV1RMq-34" value="sum =&lt;div&gt;number1 - number 2&lt;/div&gt;" style="rounded=0;whiteSpace=wrap;html=1;" parent="1" vertex="1">
          <mxGeometry x="991.86" y="440" width="133.76" height="60" as="geometry" />
        </mxCell>
        <mxCell id="ULviqefrmIrI3ihV1RMq-37" style="edgeStyle=orthogonalEdgeStyle;rounded=0;orthogonalLoop=1;jettySize=auto;html=1;exitX=0.5;exitY=1;exitDx=0;exitDy=0;entryX=0.5;entryY=0;entryDx=0;entryDy=0;" parent="1" source="ULviqefrmIrI3ihV1RMq-35" target="ULviqefrmIrI3ihV1RMq-21" edge="1">
          <mxGeometry relative="1" as="geometry" />
        </mxCell>
        <mxCell id="ULviqefrmIrI3ihV1RMq-35" value="Sum = 0" style="rounded=0;whiteSpace=wrap;html=1;" parent="1" vertex="1">
          <mxGeometry x="1082.8" y="150" width="138.13" height="40" as="geometry" />
        </mxCell>
        <mxCell id="ULviqefrmIrI3ihV1RMq-57" style="edgeStyle=orthogonalEdgeStyle;rounded=0;orthogonalLoop=1;jettySize=auto;html=1;exitX=0.5;exitY=1;exitDx=0;exitDy=0;entryX=0.5;entryY=0;entryDx=0;entryDy=0;" parent="1" source="ULviqefrmIrI3ihV1RMq-38" target="ULviqefrmIrI3ihV1RMq-52" edge="1">
          <mxGeometry relative="1" as="geometry" />
        </mxCell>
        <mxCell id="ULviqefrmIrI3ihV1RMq-38" value="sum =&lt;div&gt;number1 * number 2&lt;/div&gt;" style="rounded=0;whiteSpace=wrap;html=1;" parent="1" vertex="1">
          <mxGeometry x="1184.99" y="440" width="134.99" height="60" as="geometry" />
        </mxCell>
        <mxCell id="ULviqefrmIrI3ihV1RMq-58" style="edgeStyle=orthogonalEdgeStyle;rounded=0;orthogonalLoop=1;jettySize=auto;html=1;exitX=0.5;exitY=1;exitDx=0;exitDy=0;entryX=0.5;entryY=0;entryDx=0;entryDy=0;" parent="1" source="ULviqefrmIrI3ihV1RMq-39" target="ULviqefrmIrI3ihV1RMq-52" edge="1">
          <mxGeometry relative="1" as="geometry" />
        </mxCell>
        <mxCell id="ULviqefrmIrI3ihV1RMq-39" value="sum =&lt;div&gt;number1 / number 2&lt;/div&gt;" style="rounded=0;whiteSpace=wrap;html=1;" parent="1" vertex="1">
          <mxGeometry x="1366.24" y="440" width="145" height="60" as="geometry" />
        </mxCell>
        <mxCell id="ULviqefrmIrI3ihV1RMq-64" style="edgeStyle=orthogonalEdgeStyle;rounded=0;orthogonalLoop=1;jettySize=auto;html=1;exitX=0.5;exitY=1;exitDx=0;exitDy=0;entryX=0.5;entryY=0;entryDx=0;entryDy=0;" parent="1" source="ULviqefrmIrI3ihV1RMq-51" target="ULviqefrmIrI3ihV1RMq-54" edge="1">
          <mxGeometry relative="1" as="geometry">
            <Array as="points">
              <mxPoint x="1263" y="760" />
              <mxPoint x="1152" y="760" />
            </Array>
          </mxGeometry>
        </mxCell>
        <mxCell id="ULviqefrmIrI3ihV1RMq-51" value="Invalid Symbol, try again" style="rounded=0;whiteSpace=wrap;html=1;" parent="1" vertex="1">
          <mxGeometry x="1184.99" y="590" width="155" height="40" as="geometry" />
        </mxCell>
        <mxCell id="ULviqefrmIrI3ihV1RMq-62" style="edgeStyle=orthogonalEdgeStyle;rounded=0;orthogonalLoop=1;jettySize=auto;html=1;exitX=0.5;exitY=1;exitDx=0;exitDy=0;entryX=0.5;entryY=0;entryDx=0;entryDy=0;" parent="1" source="ULviqefrmIrI3ihV1RMq-52" target="ULviqefrmIrI3ihV1RMq-53" edge="1">
          <mxGeometry relative="1" as="geometry" />
        </mxCell>
        <mxCell id="ULviqefrmIrI3ihV1RMq-52" value="Return Sum" style="rounded=0;whiteSpace=wrap;html=1;" parent="1" vertex="1">
          <mxGeometry x="970.62" y="590" width="155" height="40" as="geometry" />
        </mxCell>
        <mxCell id="ULviqefrmIrI3ihV1RMq-63" style="edgeStyle=orthogonalEdgeStyle;rounded=0;orthogonalLoop=1;jettySize=auto;html=1;exitX=0.5;exitY=1;exitDx=0;exitDy=0;entryX=0.5;entryY=0;entryDx=0;entryDy=0;" parent="1" source="ULviqefrmIrI3ihV1RMq-53" target="ULviqefrmIrI3ihV1RMq-54" edge="1">
          <mxGeometry relative="1" as="geometry" />
        </mxCell>
        <mxCell id="ULviqefrmIrI3ihV1RMq-53" value="Output sum" style="shape=parallelogram;perimeter=parallelogramPerimeter;whiteSpace=wrap;html=1;fixedSize=1;size=14.13000000000011;" parent="1" vertex="1">
          <mxGeometry x="1075.87" y="700" width="152" height="40" as="geometry" />
        </mxCell>
        <mxCell id="ULviqefrmIrI3ihV1RMq-54" value="Sum" style="ellipse;whiteSpace=wrap;html=1;" parent="1" vertex="1">
          <mxGeometry x="1092" y="790" width="120" height="60" as="geometry" />
        </mxCell>
        <mxCell id="rDMae4r01eL3OOVDdPtL-11" style="edgeStyle=orthogonalEdgeStyle;rounded=0;orthogonalLoop=1;jettySize=auto;html=1;exitX=0.5;exitY=1;exitDx=0;exitDy=0;entryX=0.5;entryY=0;entryDx=0;entryDy=0;" edge="1" parent="1" source="rDMae4r01eL3OOVDdPtL-1" target="rDMae4r01eL3OOVDdPtL-3">
          <mxGeometry relative="1" as="geometry" />
        </mxCell>
        <mxCell id="rDMae4r01eL3OOVDdPtL-1" value="Start" style="ellipse;whiteSpace=wrap;html=1;" vertex="1" parent="1">
          <mxGeometry x="2200" y="80" width="120" height="50" as="geometry" />
        </mxCell>
        <mxCell id="rDMae4r01eL3OOVDdPtL-2" value="Odd or Even" style="rounded=1;whiteSpace=wrap;html=1;" vertex="1" parent="1">
          <mxGeometry x="1940" y="85" width="120" height="40" as="geometry" />
        </mxCell>
        <mxCell id="rDMae4r01eL3OOVDdPtL-10" style="edgeStyle=orthogonalEdgeStyle;rounded=0;orthogonalLoop=1;jettySize=auto;html=1;exitX=0.5;exitY=1;exitDx=0;exitDy=0;entryX=0.5;entryY=0;entryDx=0;entryDy=0;" edge="1" parent="1" source="rDMae4r01eL3OOVDdPtL-3" target="rDMae4r01eL3OOVDdPtL-4">
          <mxGeometry relative="1" as="geometry" />
        </mxCell>
        <mxCell id="rDMae4r01eL3OOVDdPtL-3" value="input number" style="shape=parallelogram;perimeter=parallelogramPerimeter;whiteSpace=wrap;html=1;fixedSize=1;" vertex="1" parent="1">
          <mxGeometry x="2170" y="180" width="180" height="50" as="geometry" />
        </mxCell>
        <mxCell id="rDMae4r01eL3OOVDdPtL-7" style="edgeStyle=orthogonalEdgeStyle;rounded=0;orthogonalLoop=1;jettySize=auto;html=1;exitX=0;exitY=0.5;exitDx=0;exitDy=0;entryX=0.5;entryY=0;entryDx=0;entryDy=0;" edge="1" parent="1" source="rDMae4r01eL3OOVDdPtL-4" target="rDMae4r01eL3OOVDdPtL-6">
          <mxGeometry relative="1" as="geometry" />
        </mxCell>
        <mxCell id="rDMae4r01eL3OOVDdPtL-17" value="&amp;nbsp;True&amp;nbsp;" style="edgeLabel;html=1;align=center;verticalAlign=middle;resizable=0;points=[];" vertex="1" connectable="0" parent="rDMae4r01eL3OOVDdPtL-7">
          <mxGeometry x="-0.4213" y="-2" relative="1" as="geometry">
            <mxPoint as="offset" />
          </mxGeometry>
        </mxCell>
        <mxCell id="rDMae4r01eL3OOVDdPtL-12" style="edgeStyle=orthogonalEdgeStyle;rounded=0;orthogonalLoop=1;jettySize=auto;html=1;exitX=1;exitY=0.5;exitDx=0;exitDy=0;entryX=0.5;entryY=0;entryDx=0;entryDy=0;" edge="1" parent="1" source="rDMae4r01eL3OOVDdPtL-4" target="rDMae4r01eL3OOVDdPtL-9">
          <mxGeometry relative="1" as="geometry" />
        </mxCell>
        <mxCell id="rDMae4r01eL3OOVDdPtL-18" value="&amp;nbsp;False&amp;nbsp;" style="edgeLabel;html=1;align=center;verticalAlign=middle;resizable=0;points=[];" vertex="1" connectable="0" parent="rDMae4r01eL3OOVDdPtL-12">
          <mxGeometry x="-0.5321" y="2" relative="1" as="geometry">
            <mxPoint as="offset" />
          </mxGeometry>
        </mxCell>
        <mxCell id="rDMae4r01eL3OOVDdPtL-4" value="number &amp;gt; 0" style="rhombus;whiteSpace=wrap;html=1;" vertex="1" parent="1">
          <mxGeometry x="2190" y="270" width="140" height="70" as="geometry" />
        </mxCell>
        <mxCell id="rDMae4r01eL3OOVDdPtL-15" style="edgeStyle=orthogonalEdgeStyle;rounded=0;orthogonalLoop=1;jettySize=auto;html=1;exitX=0;exitY=0.5;exitDx=0;exitDy=0;entryX=0.5;entryY=0;entryDx=0;entryDy=0;" edge="1" parent="1" source="rDMae4r01eL3OOVDdPtL-6" target="rDMae4r01eL3OOVDdPtL-13">
          <mxGeometry relative="1" as="geometry" />
        </mxCell>
        <mxCell id="rDMae4r01eL3OOVDdPtL-16" value="&amp;nbsp;False&amp;nbsp;" style="edgeLabel;html=1;align=center;verticalAlign=middle;resizable=0;points=[];" vertex="1" connectable="0" parent="rDMae4r01eL3OOVDdPtL-15">
          <mxGeometry x="-0.2894" y="-1" relative="1" as="geometry">
            <mxPoint as="offset" />
          </mxGeometry>
        </mxCell>
        <mxCell id="rDMae4r01eL3OOVDdPtL-19" style="edgeStyle=orthogonalEdgeStyle;rounded=0;orthogonalLoop=1;jettySize=auto;html=1;exitX=0.5;exitY=1;exitDx=0;exitDy=0;entryX=0.5;entryY=0;entryDx=0;entryDy=0;" edge="1" parent="1" source="rDMae4r01eL3OOVDdPtL-6" target="rDMae4r01eL3OOVDdPtL-14">
          <mxGeometry relative="1" as="geometry" />
        </mxCell>
        <mxCell id="rDMae4r01eL3OOVDdPtL-20" value="True" style="edgeLabel;html=1;align=center;verticalAlign=middle;resizable=0;points=[];" vertex="1" connectable="0" parent="rDMae4r01eL3OOVDdPtL-19">
          <mxGeometry x="0.1133" relative="1" as="geometry">
            <mxPoint as="offset" />
          </mxGeometry>
        </mxCell>
        <mxCell id="rDMae4r01eL3OOVDdPtL-6" value="number % 2 = 0" style="rhombus;whiteSpace=wrap;html=1;" vertex="1" parent="1">
          <mxGeometry x="2020" y="370" width="170" height="80" as="geometry" />
        </mxCell>
        <mxCell id="rDMae4r01eL3OOVDdPtL-24" style="edgeStyle=orthogonalEdgeStyle;rounded=0;orthogonalLoop=1;jettySize=auto;html=1;exitX=0.5;exitY=1;exitDx=0;exitDy=0;entryX=0.75;entryY=0;entryDx=0;entryDy=0;" edge="1" parent="1" source="rDMae4r01eL3OOVDdPtL-9" target="rDMae4r01eL3OOVDdPtL-21">
          <mxGeometry relative="1" as="geometry" />
        </mxCell>
        <mxCell id="rDMae4r01eL3OOVDdPtL-9" value="return &quot;Number cannot be negative&quot;" style="rounded=0;whiteSpace=wrap;html=1;" vertex="1" parent="1">
          <mxGeometry x="2330" y="385" width="170" height="50" as="geometry" />
        </mxCell>
        <mxCell id="rDMae4r01eL3OOVDdPtL-22" style="edgeStyle=orthogonalEdgeStyle;rounded=0;orthogonalLoop=1;jettySize=auto;html=1;exitX=0.5;exitY=1;exitDx=0;exitDy=0;entryX=0;entryY=0.5;entryDx=0;entryDy=0;" edge="1" parent="1" source="rDMae4r01eL3OOVDdPtL-13" target="rDMae4r01eL3OOVDdPtL-21">
          <mxGeometry relative="1" as="geometry">
            <Array as="points">
              <mxPoint x="1900" y="650" />
            </Array>
          </mxGeometry>
        </mxCell>
        <mxCell id="rDMae4r01eL3OOVDdPtL-13" value="return &quot;number is odd&quot;" style="rounded=0;whiteSpace=wrap;html=1;" vertex="1" parent="1">
          <mxGeometry x="1820" y="460" width="160" height="50" as="geometry" />
        </mxCell>
        <mxCell id="rDMae4r01eL3OOVDdPtL-23" style="edgeStyle=orthogonalEdgeStyle;rounded=0;orthogonalLoop=1;jettySize=auto;html=1;exitX=0.5;exitY=1;exitDx=0;exitDy=0;entryX=0.25;entryY=0;entryDx=0;entryDy=0;" edge="1" parent="1" source="rDMae4r01eL3OOVDdPtL-14" target="rDMae4r01eL3OOVDdPtL-21">
          <mxGeometry relative="1" as="geometry" />
        </mxCell>
        <mxCell id="rDMae4r01eL3OOVDdPtL-14" value="return &quot;number is even&quot;" style="rounded=0;whiteSpace=wrap;html=1;" vertex="1" parent="1">
          <mxGeometry x="2025" y="510" width="160" height="50" as="geometry" />
        </mxCell>
        <mxCell id="rDMae4r01eL3OOVDdPtL-26" style="edgeStyle=orthogonalEdgeStyle;rounded=0;orthogonalLoop=1;jettySize=auto;html=1;exitX=0.5;exitY=1;exitDx=0;exitDy=0;entryX=0.5;entryY=0;entryDx=0;entryDy=0;" edge="1" parent="1" source="rDMae4r01eL3OOVDdPtL-21" target="rDMae4r01eL3OOVDdPtL-25">
          <mxGeometry relative="1" as="geometry" />
        </mxCell>
        <mxCell id="rDMae4r01eL3OOVDdPtL-21" value="output return" style="shape=parallelogram;perimeter=parallelogramPerimeter;whiteSpace=wrap;html=1;fixedSize=1;" vertex="1" parent="1">
          <mxGeometry x="2140" y="620" width="240" height="60" as="geometry" />
        </mxCell>
        <mxCell id="rDMae4r01eL3OOVDdPtL-25" value="Stop" style="ellipse;whiteSpace=wrap;html=1;" vertex="1" parent="1">
          <mxGeometry x="2200" y="740" width="120" height="50" as="geometry" />
        </mxCell>
      </root>
    </mxGraphModel>
  </diagram>
</mxfile>
